<svg height="48" viewBox="0 0 48 48" width="48" xmlns="http://www.w3.org/2000/svg"><g fill="none"><path d="m24 12.0100251c6.6115288 0 11.9899749 5.3784461 11.9899749 11.9899749s-5.3784461 11.9899749-11.9899749 11.9899749-11.9899749-5.3784461-11.9899749-11.9899749 5.3784461-11.9899749 11.9899749-11.9899749zm0-4.0100251c-8.8360902 0-16 7.1629073-16 16 0 8.8350877 7.1639098 16 16 16s16-7.1649123 16-16c0-8.8370927-7.1639098-16-16-16z" fill="#231f20"/><path d="m23 32c4.9711268 0 9-3.8042726 9-8.5004989 0-4.6942308-4.0278169-8.4995011-9-8.4995011" fill="#000"/></g></svg>