<svg height="346" viewBox="0 0 299 346" width="299" xmlns="http://www.w3.org/2000/svg"><g fill="none" fill-rule="evenodd"><path d="m265.568 102.03 5.355-5.36c7.718-7.71 9.124-18.93 3.126-24.93s-17.217-4.58-24.934 3.13l-5.387 5.38c-21.447214-17.4058954-47.328081-28.478202-74.728-31.97v-9.58h7.658c10.914 0 19.843-8.71 19.843-19.35s-8.928-19.35-19.842-19.35h-53.317c-10.913 0-19.842 8.71-19.842 19.35s8.929 19.35 19.842 19.35h7.658v9.58c-67.3330297 8.6472364-120.3116002 61.709726-128.85225325 129.056358-8.54065303 67.346632 29.51548165 131.953809 92.55853155 157.134862 63.0430497 25.181053 135.1372597 4.570822 175.3445087-50.127339 40.207248-54.69816 38.364117-129.65788-4.482787-182.313881zm-115.568 204.150001c-60.8210613-.017673-110.1138581-49.333599-110.1029999-110.154662.0108617-60.821062 49.3212665-110.1193822 110.1423299-110.1153341 60.821064.0040481 110.124906 49.3089311 110.12767 110.1299951-.003182 29.214647-11.611913 57.231429-32.27232 77.886772-20.660406 20.655343-48.680033 32.257206-77.89468 32.253229z" fill="#dedede"/><g fill="#d22856"><path d="m149.5 69c-51.164474 0-97.2909643 30.8207355-116.8707609 78.090546-19.5797965 47.26981-8.7569934 101.679715 27.4217531 137.858462 36.1787465 36.178746 90.5886518 47.001549 137.8584618 27.421753 47.26981-19.579797 78.090546-65.706287 78.090546-116.870761 0-69.864021-56.635979-126.5-126.5-126.5zm0 237.22c-44.559878 0-84.732779-26.840076-101.785947-68.007687-17.0531681-41.167612-7.628231-88.554185 23.8799322-120.063206 31.5081638-31.5090216 78.8944798-40.9352491 120.0625558-23.8832021 41.168076 17.0520471 68.010459 57.2242161 68.010459 101.7840951 0 60.843582-49.323418 110.167239-110.167 110.17z"/><path d="m144.251 219.69h-37.324v-.82l11.015-10.37c7.344-6.71 12.471-11.883333 15.381-15.52 2.655716-3.213387 4.82704-6.79801 6.445-10.64 1.399973-3.532021 2.106182-7.300735 2.08-11.1.07413-4.269608-1.108193-8.466853-3.4-12.07-2.343638-3.584436-5.655305-6.43113-9.551-8.21-4.447577-2.025245-9.292974-3.026516-14.179-2.93-3.707083-.036784-7.405286.369427-11.016 1.21-3.15903.753796-6.2104234 1.902856-9.082 3.42-3.7419773 2.182951-7.2555635 4.735728-10.488 7.62l9.843 11.66c2.9941734-2.54511 6.279015-4.726948 9.786-6.5 3.002283-1.499534 6.311071-2.283348 9.667-2.29 2.755658-.139844 5.463475.759432 7.588 2.52 1.895333 1.68 2.842667 4.24 2.842 7.68.002335 2.288691-.43527 4.556498-1.289 6.68-1.078492 2.515861-2.498148 4.871299-4.219 7-1.952667 2.52-6.112667 7.04-12.48 13.56l-21.5 21.74v12.6h59.883v-15.24zm70.429-16.58h-10.312v-53.84h-16.7l-37.559 55.31v12.6h36.563v17.75h17.695v-17.75h10.313zm-48.632 0 15.7-23.73c1.992355-2.975031 3.736572-6.108935 5.215-9.37h.468c-.117.74-.273 3.42-.468 8.02s-.293 8.13-.293 10.55v14.53z"/></g></g></svg>